<?xml version="1.0" encoding="UTF-8"?>
<svg id="Layer_1" xmlns="http://www.w3.org/2000/svg" version="1.1" viewBox="0 0 28 28">
  <!-- Generator: Adobe Illustrator 30.0.0, SVG Export Plug-In . SVG Version: 2.1.1 Build 123)  -->
  <defs>
    <style>
      .st0, .st1 {
        fill: #231f20;
      }

      .st2 {
        fill: #fff;
      }

      .st1 {
        stroke: #231f20;
        stroke-linecap: round;
        stroke-linejoin: round;
        stroke-width: .75px;
      }
    </style>
  </defs>
  <g>
    <path class="st1" d="M12.45,4.82c.53.2,2.62-.11,2.95.15.46.37-.04,1.82.25,2.26.05.09,1.76.93,1.87.93.42,0,1.36-1.78,1.76-1.59.15.07,1.85,1.91,1.89,2.07.13.58-1.23,1.39-1.28,1.85,0,.09.55,1.69.61,1.76.2.24,1.94.04,2.33.11.15.05,0,2.92-.07,3.03-.3.4-1.72.02-2.09.31-.09.07-.77,1.69-.77,1.82-.02.42,1.54,1.25,1.34,1.91-.09.28-1.89,2.13-2.11,2.04-.4-.3-1.21-1.52-1.65-1.51-.11,0-1.72.79-1.8.88-.25.38.11,1.82-.24,2.31-.55-.11-2.68.17-2.94-.31-.17-.3,0-1.56-.09-1.96h0s-1.89-.93-2-.93c-.37.02-1.1,1.16-1.51,1.31-.51.18-1.87-1.59-2.29-1.98-.02-.24,1.47-1.41,1.52-1.72,0-.09-.58-1.54-.64-1.61-.48-.68-1.87-.15-2.24-.5-.2-.2-.18-2.81.04-3.03.18-.18,1.69.09,2-.11.07-.05.88-1.61.9-1.71.05-.5-1.34-1.28-1.41-1.8-.05-.37,1.69-1.93,2.02-2.35.22,0,1.26,1.58,1.56,1.63.11.02,1.84-.68,1.93-.75.33-.31,0-2,.18-2.52h0l-.02.02h-.01Z"/>
    <path class="st2" d="M13.79,10.04c4.77-.3,5.74,7.3.66,7.94-5.24.66-5.96-7.61-.66-7.94Z"/>
  </g>
  <path class="st0" d="M24.78,6.04c.35.02,1.03,0,1.39,0,.51.02,1.06-.05,1.56.17.07.02.3.25.28.42v14.55c-.09.77-1.28.57-1.82.58h-.64c-.07,0-.13,0-.13.05,0,.09.07.44-.07.61-.15.13-.25.09-.44-.05-.25-.22-.61-.51-.77-.83-.07-.4.81-1.32,1.08-1.25.17.04.22.24.24.4,0,.09,0,.17.04.22.15.05.35-.02.46,0h.73c.22,0,.44,0,.63-.05h0s-.07.07-.09.11c-.07.81,0-14.59-.02-14.4l.04.15c.04.11.11.15.11.15-.53-.11-1.32-.05-1.89-.05-.28,0-.51,0-.81-.02-.55-.09-.4-.92.15-.81h0l-.02.05h0Z"/>
  <path class="st0" d="M3.25,22.02c-.35-.02-1.03,0-1.39,0-.51-.02-1.06.05-1.56-.17-.07-.02-.3-.25-.28-.42V6.89c.09-.77,1.28-.57,1.82-.58h.64c.07,0,.13,0,.13-.05,0-.09-.07-.44.07-.61.15-.13.25-.09.44.05.25.22.61.51.77.83.07.4-.81,1.32-1.08,1.25-.17-.04-.22-.24-.24-.4,0-.09,0-.17-.04-.22-.15-.05-.35.02-.46,0h-.73c-.22,0-.44,0-.63.05h0s.07-.07.09-.11c.07-.81,0,14.59.02,14.4l-.04-.15c-.04-.11-.11-.15-.11-.15.53.11,1.32.05,1.89.05.28,0,.51,0,.81.02.55.09.4.92-.15.81h0l.02-.05h0Z"/>
</svg>