<?xml version="1.0" encoding="UTF-8"?>
<svg xmlns="http://www.w3.org/2000/svg" viewBox="0 0 127.81 130.03">
  <defs>
    <style>
      .cls-1 {
        stroke: #e0edc8;
      }

      .cls-1, .cls-2, .cls-3, .cls-4, .cls-5, .cls-6 {
        stroke-linecap: round;
        stroke-linejoin: round;
        stroke-width: 3.06px;
      }

      .cls-1, .cls-3, .cls-5, .cls-6 {
        fill: none;
      }

      .cls-2 {
        fill: #f68c1e;
        stroke: #2a324f;
      }

      .cls-3 {
        stroke: #ddecc8;
      }

      .cls-7 {
        fill: #1e3a5f;
      }

      .cls-4 {
        fill: #fff;
        stroke: #34414f;
      }

      .cls-5 {
        stroke: #deedc9;
      }

      .cls-6 {
        stroke: #32404f;
      }

      .cls-8 {
        fill: #231f20;
        font-family: CourierNewPS-BoldMT, 'Courier New';
        font-size: 14px;
        font-weight: 700;
      }

      .cls-9 {
        fill: #34414f;
      }
    </style>
  </defs>
  <g id="Layer_1" data-name="Layer 1">
    <path class="cls-7" d="M7,1.53l114.37.11c1.17.41,2.19,1,3.03,1.93,2.38,2.63,1.6,17.38,1.65,21.8h-1.1s-121.81.27-121.81.27h-1.1c.03-6.78-2.87-21.96,4.96-24.11Z"/>
    <path class="cls-2" d="M58.17,32.62c2.03.72,9.9-.4,11.11.56,1.76,1.38-.16,6.72.99,8.39.22.32,6.66,3.46,7.05,3.48,1.56.05,5.14-6.57,6.62-5.9.55.25,6.97,7.09,7.11,7.67.5,2.21-4.63,5.15-4.85,6.9-.04.34,2.05,6.25,2.28,6.51.76.88,7.29.14,8.75.39.53.21.06,10.8-.28,11.26-1.12,1.51-6.52.08-7.85,1.19-.32.26-2.87,6.28-2.89,6.72-.07,1.58,5.83,4.64,5.01,7.05-.34,1.01-7.12,7.93-7.97,7.57-1.51-1.11-4.59-5.66-6.23-5.59-.4.02-6.52,2.93-6.74,3.26-.96,1.41.41,6.72-.89,8.61-2.08-.43-10.09.63-11.07-1.16-.61-1.1-.06-5.77-.33-7.3h0c-.23-.34-7.13-3.48-7.54-3.45-1.36.1-4.11,4.32-5.69,4.85-1.94.65-7.05-5.93-8.6-7.36-.08-.91,5.5-5.23,5.7-6.41.05-.32-2.18-5.69-2.39-5.98-1.81-2.54-7.05-.53-8.43-1.82-.79-.74-.71-10.43.12-11.24.67-.65,6.36.32,7.54-.41.31-.19,3.32-5.99,3.36-6.35.19-1.87-5.05-4.79-5.29-6.67-.18-1.39,6.37-7.16,7.6-8.69.81-.03,4.78,5.83,5.87,6.08.38.09,6.89-2.5,7.23-2.8,1.25-1.13,0-7.41.71-9.32Z"/>
    <path class="cls-4" d="M63.22,52.05c17.95-1.09,21.65,27.06,2.48,29.46-19.77,2.47-22.43-28.26-2.48-29.46Z"/>
    <path class="cls-9" d="M104.56,37.18c1.31.08,3.85.04,5.23,0,1.96.07,4.02-.2,5.9.64.28.07,1.12.93,1.03,1.57,0,0-.03,54-.03,54-.33,2.85-4.78,2.12-6.78,2.21-.85-.01-1.65.05-2.43.06-.28.04-.49.01-.51.19-.03.37.31,1.66-.29,2.25-.53.45-.96.36-1.66-.21-.96-.8-2.31-1.93-2.89-3.05-.29-1.48,3.01-4.89,4.09-4.61.62.16.82.91.91,1.52.06.35.04.61.13.84.52.18,1.31-.09,1.72-.04.66-.02,2.08.01,2.75.02.81,0,1.63.01,2.34-.19.01,0,.06-.02,0,0-.14.09-.3.27-.33.44-.29,2.97,0-54.1-.08-53.43,0,0,.11.57.11.57.17.43.43.52.42.53-1.98-.43-4.94-.19-7.13-.2-1.03,0-1.94.06-3.07-.1-2.04-.36-1.49-3.4.56-3.01h0Z"/>
    <line class="cls-1" x1="114.2" y1="15.03" x2="71.76" y2="15.02"/>
    <path class="cls-6" d="M1.98,111.44c-.53-28.54-.06-57.24.06-85.78.03-6.79-2.87-21.97,4.96-24.12l114.37.11c1.17.41,2.19,1,3.03,1.93,2.38,2.63,1.6,17.38,1.65,21.8.42,32.2.32,64.77-.77,96.83-2.61,4.74-8.63,3.66-13.28,3.81-34.38,1.1-68.95-.85-103.35,0-8.75-1.33-6.55-8.09-6.67-14.57Z"/>
    <line class="cls-3" x1="42.8" y1="15.09" x2="43.63" y2="14.83"/>
    <line class="cls-6" x1="124.95" y1="25.37" x2="3.14" y2="25.65"/>
    <line class="cls-5" x1="29.85" y1="15.09" x2="30.68" y2="14.83"/>
    <line class="cls-5" x1="18.3" y1="14.95" x2="16.37" y2="15.02"/>
    <line class="cls-6" x1="3.41" y1="107.63" x2="124.95" y2="107.63"/>
    <path class="cls-9" d="M23.47,96.5c-1.31-.08-3.85-.04-5.23,0-1.96-.07-4.02.2-5.9-.64-.28-.07-1.12-.93-1.03-1.57,0,0,.03-54,.03-54,.33-2.85,4.78-2.12,6.78-2.21.85.01,1.65-.05,2.43-.06.28-.04.49-.01.51-.19.03-.37-.31-1.66.29-2.25.53-.45.96-.36,1.66.21.96.8,2.31,1.93,2.89,3.05.29,1.48-3.01,4.89-4.09,4.61-.62-.16-.82-.91-.91-1.52-.06-.35-.04-.61-.13-.84-.52-.18-1.31.09-1.72.04-.66.02-2.08-.01-2.75-.02-.81,0-1.63-.01-2.34.19-.01,0-.06.02,0,0,.14-.09.3-.27.33-.44.29-2.97,0,54.1.08,53.43,0,0-.11-.57-.11-.57-.17-.43-.43-.52-.42-.53,1.98.43,4.94.19,7.13.2,1.03,0,1.94-.06,3.07.1,2.04.36,1.49,3.4-.56,3.01h0Z"/>
  </g>
  <g id="Layer_2" data-name="Layer 2">
    <text class="cls-8" transform="translate(42.8 120.08)"><tspan x="0" y="0">recue</tspan></text>
  </g>
</svg>