<?xml version="1.0" encoding="UTF-8"?>
<svg id="Layer_1" xmlns="http://www.w3.org/2000/svg" version="1.1" viewBox="0 0 48 33.11">
  <!-- Generator: Adobe Illustrator 30.0.0, SVG Export Plug-In . SVG Version: 2.1.1 Build 123)  -->
  <defs>
    <style>
      .st0, .st1 {
        fill: #f68c1e;
      }

      .st1 {
        stroke: #2a324f;
      }

      .st1, .st2 {
        stroke-linecap: round;
        stroke-linejoin: round;
        stroke-width: .75px;
      }

      .st2 {
        fill: #fff;
        stroke: #34414f;
      }
    </style>
  </defs>
  <path class="st1" d="M21.37,1.02c.9.34,4.44-.19,5,.25.78.62-.06,3.08.43,3.82.09.16,2.98,1.58,3.17,1.58.71,0,2.3-3.01,2.98-2.7.25.12,3.14,3.23,3.2,3.51.22.99-2.08,2.36-2.17,3.14,0,.16.93,2.86,1.03,2.98.34.4,3.29.06,3.95.19.25.09,0,4.94-.12,5.13-.5.68-2.92.03-3.54.53-.16.12-1.3,2.86-1.3,3.08-.03.71,2.61,2.11,2.27,3.23-.16.47-3.2,3.6-3.57,3.45-.68-.5-2.05-2.58-2.8-2.55-.19,0-2.92,1.34-3.04,1.49-.43.65.19,3.08-.4,3.91-.93-.19-4.54.28-4.97-.53-.28-.5,0-2.64-.16-3.32h0s-3.2-1.58-3.39-1.58c-.62.03-1.86,1.96-2.55,2.21-.87.31-3.17-2.7-3.88-3.35-.03-.4,2.49-2.39,2.58-2.92,0-.16-.99-2.61-1.09-2.73-.81-1.15-3.17-.25-3.79-.84-.34-.34-.31-4.75.06-5.13.31-.31,2.86.16,3.39-.19.12-.09,1.49-2.73,1.52-2.89.09-.84-2.27-2.17-2.39-3.04-.09-.62,2.86-3.26,3.42-3.98.37,0,2.14,2.67,2.64,2.76.19.03,3.11-1.15,3.26-1.27.56-.53,0-3.39.31-4.26h0l-.03.03Z"/>
  <path class="st2" d="M23.64,9.87c8.08-.5,9.72,12.36,1.12,13.45-8.88,1.12-10.1-12.89-1.12-13.45Z"/>
  <path class="st0" d="M42.25,3.1c.59.03,1.74,0,2.36,0,.87.03,1.8-.09,2.64.28.12.03.5.43.47.71v24.63c-.16,1.3-2.17.96-3.08.99h-1.09c-.12,0-.22,0-.22.09,0,.16.12.75-.12,1.03-.25.22-.43.16-.75-.09-.43-.37-1.03-.87-1.3-1.4-.12-.68,1.37-2.24,1.83-2.11.28.06.37.4.4.68,0,.16,0,.28.06.37.25.09.59-.03.78,0h1.24c.37,0,.75,0,1.06-.09h0c-.06.03-.12.12-.16.19-.12,1.37,0-24.7-.03-24.39l.06.25c.06.19.19.25.19.25-.9-.19-2.24-.09-3.2-.09-.47,0-.87,0-1.37-.03-.93-.16-.68-1.55.25-1.37h0l-.03.09Z"/>
  <path class="st0" d="M5.78,30.16c-.59-.03-1.74,0-2.36,0-.87-.03-1.8.09-2.64-.28-.12-.03-.5-.43-.47-.71V4.53c.16-1.3,2.17-.96,3.08-.99h1.09c.12,0,.22,0,.22-.09,0-.16-.12-.75.12-1.03.25-.22.43-.16.75.09.43.37,1.03.87,1.3,1.4.12.68-1.37,2.24-1.83,2.11-.28-.06-.37-.4-.4-.68,0-.16,0-.28-.06-.37-.25-.09-.59.03-.78,0h-1.24c-.37,0-.75,0-1.06.09h0c.06-.03.12-.12.16-.19.12-1.37,0,24.7.03,24.39l-.06-.25c-.06-.19-.19-.25-.19-.25.9.19,2.24.09,3.2.09.47,0,.87,0,1.37.03.93.16.68,1.55-.25,1.37h0l.03-.09Z"/>
</svg>