<?xml version="1.0" encoding="UTF-8"?>
<svg id="Layer_1" xmlns="http://www.w3.org/2000/svg" version="1.1" viewBox="0 0 313.36 214.31">
  <!-- Generator: Adobe Illustrator 30.0.0, SVG Export Plug-In . SVG Version: 2.1.1 Build 123)  -->
  <defs>
    <style>
      .st0 {
        fill: #fff;
        stroke: #34414f;
      }

      .st0, .st1 {
        stroke-linecap: round;
        stroke-linejoin: round;
        stroke-width: 3.06px;
      }

      .st1 {
        fill: #f68c1e;
        stroke: #2a324f;
      }

      .st2 {
        fill: #34414f;
      }
    </style>
  </defs>
  <path class="st1" d="M139.31,5.54c5.99,2.12,29.22-1.18,32.79,1.65,5.19,4.07-.47,19.83,2.92,24.76.65.94,19.65,10.21,20.81,10.27,4.6.15,15.17-19.39,19.54-17.41,1.62.74,20.57,20.92,20.98,22.64,1.48,6.52-13.66,15.2-14.31,20.36-.12,1,6.05,18.44,6.73,19.21,2.24,2.6,21.51.41,25.82,1.15,1.56.62.18,31.87-.83,33.23-3.31,4.46-19.24.24-23.17,3.51-.94.77-8.47,18.53-8.53,19.83-.21,4.66,17.21,13.69,14.79,20.81-1,2.98-21.01,23.4-23.52,22.34-4.46-3.28-13.55-16.7-18.39-16.5-1.18.06-19.24,8.65-19.89,9.62-2.83,4.16,1.21,19.83-2.63,25.41-6.14-1.27-29.78,1.86-32.67-3.42-1.8-3.25-.18-17.03-.97-21.54h0c-.68-1-21.04-10.27-22.25-10.18-4.01.3-12.13,12.75-16.79,14.31-5.73,1.92-20.81-17.5-25.38-21.72-.24-2.69,16.23-15.43,16.82-18.92.15-.94-6.43-16.79-7.05-17.65-5.34-7.5-20.81-1.56-24.88-5.37-2.33-2.18-2.1-30.78.35-33.17,1.98-1.92,18.77.94,22.25-1.21.91-.56,9.8-17.68,9.92-18.74.56-5.52-14.9-14.14-15.61-19.68-.53-4.1,18.8-21.13,22.43-25.65,2.39-.09,14.11,17.21,17.32,17.94,1.12.27,20.33-7.38,21.34-8.26,3.69-3.33,0-21.87,2.1-27.51l-.03-.12Z"/>
  <path class="st0" d="M154.22,62.88c52.97-3.22,63.89,79.86,7.32,86.94-58.34,7.29-66.19-83.4-7.32-86.94Z"/>
  <path class="st2" d="M276.22,19c3.87.24,11.36.12,15.43,0,5.78.21,11.86-.59,17.41,1.89.83.21,3.31,2.74,3.04,4.63l-.09,159.36c-.97,8.41-14.11,6.26-20.01,6.52-2.51-.03-4.87.15-7.17.18-.83.12-1.45.03-1.51.56-.09,1.09.91,4.9-.86,6.64-1.56,1.33-2.83,1.06-4.9-.62-2.83-2.36-6.82-5.7-8.53-9-.86-4.37,8.88-14.43,12.07-13.6,1.83.47,2.42,2.69,2.69,4.49.18,1.03.12,1.8.38,2.48,1.53.53,3.87-.27,5.08-.12,1.95-.06,6.14.03,8.12.06,2.39,0,4.81.03,6.91-.56.03,0,.18-.06,0,0-.41.27-.89.8-.97,1.3-.86,8.77,0-159.66-.24-157.68l.32,1.68c.5,1.27,1.27,1.53,1.24,1.56-5.84-1.27-14.58-.56-21.04-.59-3.04,0-5.73.18-9.06-.3-6.02-1.06-4.4-10.03,1.65-8.88h.03Z"/>
  <path class="st2" d="M36.91,194.06c-3.87-.24-11.36-.12-15.43,0-5.78-.21-11.86.59-17.41-1.89-.83-.21-3.31-2.74-3.04-4.63l.09-159.36c.97-8.41,14.11-6.26,20.01-6.52,2.51.03,4.87-.15,7.17-.18.83-.12,1.45-.03,1.51-.56.09-1.09-.91-4.9.86-6.64,1.56-1.33,2.83-1.06,4.9.62,2.83,2.36,6.82,5.7,8.53,9,.86,4.37-8.88,14.43-12.07,13.6-1.83-.47-2.42-2.69-2.69-4.49-.18-1.03-.12-1.8-.38-2.48-1.53-.53-3.87.27-5.08.12-1.95.06-6.14-.03-8.12-.06-2.39,0-4.81-.03-6.91.56-.03,0-.18.06,0,0,.41-.27.89-.8.97-1.3.86-8.77,0,159.66.24,157.68l-.32-1.68c-.5-1.27-1.27-1.53-1.24-1.56,5.84,1.27,14.58.56,21.04.59,3.04,0,5.73-.18,9.06.3,6.02,1.06,4.4,10.03-1.65,8.88h-.03Z"/>
</svg>