<?xml version="1.0" encoding="UTF-8"?>
<svg id="Layer_1" xmlns="http://www.w3.org/2000/svg" version="1.1" viewBox="0 0 128 128">
  <!-- Generator: Adobe Illustrator 30.0.0, SVG Export Plug-In . SVG Version: 2.1.1 Build 123)  -->
  <defs>
    <style>
      .st0 {
        fill: #fff;
        stroke: #34414f;
      }

      .st0, .st1 {
        stroke-linecap: round;
        stroke-linejoin: round;
        stroke-width: 3.06px;
      }

      .st1 {
        fill: #f68c1e;
        stroke: #2a324f;
      }

      .st2 {
        fill: #34414f;
      }
    </style>
  </defs>
  <path class="st1" d="M57.01,23.41c2.43.86,11.83-.48,13.28.67,2.1,1.65-.19,8.01,1.18,10.01.26.38,7.96,4.13,8.43,4.15,1.86.06,6.14-7.84,7.91-7.04.66.3,8.33,8.46,8.5,9.15.6,2.64-5.53,6.14-5.8,8.23-.05.41,2.45,7.45,2.73,7.76.91,1.05,8.71.17,10.46.47.63.25.07,12.88-.33,13.43-1.34,1.8-7.79.1-9.38,1.42-.38.31-3.43,7.49-3.45,8.01-.08,1.88,6.97,5.53,5.99,8.41-.41,1.2-8.51,9.46-9.53,9.03-1.8-1.32-5.49-6.75-7.45-6.67-.48.02-7.79,3.49-8.06,3.89-1.15,1.68.49,8.01-1.06,10.27-2.49-.51-12.06.75-13.23-1.38-.73-1.31-.07-6.88-.39-8.71h0c-.27-.41-8.52-4.15-9.01-4.11-1.63.12-4.91,5.15-6.8,5.78-2.32.78-8.43-7.07-10.28-8.78-.1-1.09,6.57-6.24,6.81-7.64.06-.38-2.61-6.79-2.86-7.13-2.16-3.03-8.43-.63-10.08-2.17-.94-.88-.85-12.44.14-13.4.8-.78,7.6.38,9.01-.49.37-.23,3.97-7.14,4.02-7.57.23-2.23-6.04-5.71-6.32-7.95-.22-1.66,7.61-8.54,9.08-10.36.97-.04,5.71,6.95,7.02,7.25.45.11,8.23-2.98,8.64-3.34,1.49-1.35,0-8.84.85-11.11v-.05Z"/>
  <path class="st0" d="M63.05,46.58c21.45-1.3,25.88,32.27,2.96,35.13-23.63,2.95-26.81-33.7-2.96-35.13Z"/>
  <path class="st2" d="M112.46,28.85c1.57.1,4.6.05,6.25,0,2.34.08,4.8-.24,7.05.76.33.08,1.34,1.11,1.23,1.87l-.04,64.4c-.39,3.4-5.71,2.53-8.1,2.64-1.02-.01-1.97.06-2.9.07-.33.05-.59.01-.61.23-.04.44.37,1.98-.35,2.68-.63.54-1.15.43-1.98-.25-1.15-.95-2.76-2.3-3.45-3.64-.35-1.77,3.6-5.83,4.89-5.5.74.19.98,1.09,1.09,1.81.07.42.05.73.16,1,.62.21,1.57-.11,2.06-.05.79-.02,2.49.01,3.29.02.97,0,1.95.01,2.8-.23.01,0,.07-.02,0,0-.17.11-.36.32-.39.52-.35,3.54,0-64.52-.1-63.72l.13.68c.2.51.51.62.5.63-2.37-.51-5.9-.23-8.52-.24-1.23,0-2.32.07-3.67-.12-2.44-.43-1.78-4.05.67-3.59h.01Z"/>
  <path class="st2" d="M15.54,99.59c-1.57-.1-4.6-.05-6.25,0-2.34-.08-4.8.24-7.05-.76-.33-.08-1.34-1.11-1.23-1.87l.04-64.4c.39-3.4,5.71-2.53,8.1-2.64,1.02.01,1.97-.06,2.9-.07.33-.05.59-.01.61-.23.04-.44-.37-1.98.35-2.68.63-.54,1.15-.43,1.98.25,1.15.95,2.76,2.3,3.45,3.64.35,1.77-3.6,5.83-4.89,5.5-.74-.19-.98-1.09-1.09-1.81-.07-.42-.05-.73-.16-1-.62-.21-1.57.11-2.06.05-.79.02-2.49-.01-3.29-.02-.97,0-1.95-.01-2.8.23-.01,0-.07.02,0,0,.17-.11.36-.32.39-.52.35-3.54,0,64.52.1,63.72l-.13-.68c-.2-.51-.51-.62-.5-.63,2.37.51,5.9.23,8.52.24,1.23,0,2.32-.07,3.67.12,2.44.43,1.78,4.05-.67,3.59h-.01Z"/>
</svg>