<?xml version="1.0" encoding="UTF-8"?>
<svg id="Layer_1" xmlns="http://www.w3.org/2000/svg" version="1.1" viewBox="0 0 80 60">
  <!-- Generator: Adobe Illustrator 30.0.0, SVG Export Plug-In . SVG Version: 2.1.1 Build 123)  -->
  <defs>
    <style>
      .st0 {
        fill: #fff;
        stroke: #34414f;
      }

      .st0, .st1 {
        stroke-linecap: round;
        stroke-linejoin: round;
        stroke-width: 3.06px;
      }

      .st1 {
        stroke: #2a324f;
      }

      .st1, .st2 {
        fill: #f68c1e;
      }
    </style>
  </defs>
  <path class="st1" d="M35.58,2.92c1.54.58,7.51-.32,8.43.45,1.34,1.1-.12,5.37.75,6.71.17.26,5.05,2.77,5.35,2.78,1.18.04,3.9-5.25,5.02-4.72.42.2,5.29,5.67,5.4,6.13.38,1.77-3.51,4.12-3.68,5.52-.03.27,1.56,5,1.73,5.21.58.7,5.53.11,6.64.31.4.17.05,8.64-.21,9.01-.85,1.21-4.95.06-5.96.95-.24.21-2.18,5.02-2.19,5.37-.05,1.26,4.42,3.71,3.8,5.64-.26.81-5.4,6.34-6.05,6.05-1.15-.89-3.48-4.53-4.73-4.47-.3.02-4.95,2.34-5.11,2.61-.73,1.13.31,5.37-.68,6.89-1.58-.34-7.66.5-8.4-.93-.46-.88-.05-4.61-.25-5.84h0c-.17-.27-5.41-2.78-5.72-2.76-1.03.08-3.12,3.46-4.32,3.88-1.47.52-5.35-4.74-6.53-5.89-.06-.73,4.17-4.18,4.33-5.13.04-.26-1.65-4.55-1.81-4.78-1.37-2.03-5.35-.42-6.4-1.46-.6-.59-.54-8.34.09-8.99.51-.52,4.83.26,5.72-.33.24-.15,2.52-4.79,2.55-5.08.14-1.5-3.83-3.83-4.01-5.33-.14-1.11,4.83-5.73,5.77-6.95.61-.02,3.63,4.66,4.45,4.86.29.07,5.23-2,5.49-2.24.95-.9,0-5.93.54-7.45v-.03Z"/>
  <path class="st0" d="M39.41,18.46c13.62-.87,16.43,21.64,1.88,23.56-15,1.98-17.02-22.6-1.88-23.56Z"/>
  <path class="st2" d="M70.78,6.57c.99.06,2.92.03,3.97,0,1.49.06,3.05-.16,4.48.51.21.06.85.74.78,1.26l-.02,43.19c-.25,2.28-3.63,1.7-5.14,1.77-.65,0-1.25.04-1.84.05-.21.03-.37,0-.39.15-.02.3.24,1.33-.22,1.8-.4.36-.73.29-1.26-.17-.73-.64-1.75-1.54-2.19-2.44-.22-1.18,2.28-3.91,3.1-3.69.47.13.62.73.69,1.22.05.28.03.49.1.67.39.14.99-.07,1.31-.03.5-.02,1.58,0,2.09.02.61,0,1.24,0,1.78-.15,0,0,.05-.02,0,0-.11.07-.23.22-.25.35-.22,2.38,0-43.27-.06-42.73l.08.46c.13.34.33.42.32.42-1.5-.34-3.75-.15-5.41-.16-.78,0-1.47.05-2.33-.08-1.55-.29-1.13-2.72.42-2.41h0Z"/>
  <path class="st2" d="M9.25,54.01c-.99-.06-2.92-.03-3.97,0-1.49-.06-3.05.16-4.48-.51-.21-.06-.85-.74-.78-1.26L.04,9.06c.25-2.28,3.63-1.7,5.14-1.77.65,0,1.25-.04,1.84-.05.21-.03.37,0,.39-.15.02-.3-.24-1.33.22-1.8.4-.36.73-.29,1.26.17.73.64,1.75,1.54,2.19,2.44.22,1.18-2.28,3.91-3.1,3.69-.47-.13-.62-.73-.69-1.22-.05-.28-.03-.49-.1-.67-.39-.14-.99.07-1.31.03-.5.02-1.58,0-2.09-.02-.61,0-1.24,0-1.78.15,0,0-.05.02,0,0,.11-.07.23-.22.25-.35.22-2.38,0,43.27.06,42.73l-.08-.46c-.13-.34-.33-.42-.32-.42,1.5.34,3.75.15,5.41.16.78,0,1.47-.05,2.33.08,1.55.29,1.13,2.72-.42,2.41h0Z"/>
</svg>